<svg width="178" height="153" viewBox="0 0 178 153" fill="none" xmlns="http://www.w3.org/2000/svg">
<path d="M126.928 87.4485C136.054 72.1405 134.729 51.6876 122.078 36.7298C106.212 17.8459 78.5294 14.7931 60.2377 29.8822C42.7362 44.3607 40.2271 70.1774 54.0214 88.8862C70.7302 112.35 107.447 114.793 124.946 90.4575L98.9408 39.4324C94.2682 30.2301 83.8655 30.1425 79.193 39.4324L56.8899 83.216C59.2723 87.9715 63.0163 91.6764 67.864 94.0749L72.8039 84.0431H104.98L110.694 94.8283C110.403 95.0495 107.219 91.2317 107.127 91.2939C91.3352 102.404 66.1383 104.872 55.1665 86.5269C46.7498 72.6151 51.9063 52.206 67.9078 38.9923C85.2295 24.6866 108.768 24.2949 120.405 38.0753C128.958 48.2384 128.739 63.24 121.156 76.1495L126.93 87.4439L126.928 87.4485ZM79.6745 70.2212L88.8883 51.8189L98.0999 70.2212H79.6745Z" fill="#1E1C58"/>
<g style="mix-blend-mode:lighten">
<g style="mix-blend-mode:lighten">
<path d="M129.592 52.7037C128.408 48.9919 126.719 45.3953 124.528 42.0245C126.369 45.4575 127.482 49.2661 127.864 53.2636C128.44 53.0769 129.016 52.888 129.592 52.7014V52.7037Z" fill="#1E1C58"/>
</g>
</g>
<path d="M30.1831 42.9734C29.4735 42.326 28.4505 43.3167 29.0795 44.0448C33.1599 48.752 37.8717 52.9591 43.0673 56.5096C51.2973 62.1269 60.783 66.0391 70.6904 67.7165C80.5908 69.4214 90.8783 68.8086 100.465 66.0115C106.534 64.242 112.315 61.6131 117.596 58.2653C118.409 57.7492 117.72 56.4981 116.852 56.9175C111.327 59.574 105.585 61.6407 99.6774 62.9609C90.3668 65.0714 80.7129 65.3664 71.3608 63.765C62.0042 62.1822 52.9747 58.7653 44.7608 53.8623C39.5583 50.7795 34.7037 47.1 30.1878 42.9734H30.1831Z" fill="#1E1C58"/>
<path d="M24.9648 45.0471C24.2159 44.4411 23.2506 45.4779 23.921 46.1714C28.8977 51.3164 34.6117 55.8092 40.8557 59.4634C50.2054 64.9286 60.7879 68.4538 71.656 69.5205C82.5195 70.6195 93.6296 69.1726 103.811 65.4147C110.631 62.8964 117.032 59.362 122.743 55.0074C123.506 54.4245 122.711 53.2494 121.884 53.7356C115.794 57.2976 109.391 60.18 102.724 62.166C92.7886 65.1613 82.3421 66.2119 72.08 65.1866C61.8155 64.1798 51.7629 61.1592 42.4869 56.4659C36.2752 53.3508 30.4345 49.48 24.9648 45.0494V45.0471Z" fill="#2759A9"/>
<path d="M19.5107 47.8051C18.725 47.2452 17.8334 48.3511 18.543 49.0032C24.5174 54.5052 31.3212 59.1847 38.6802 62.832C49.2327 68.0506 60.9741 71.0689 72.8399 71.4007C84.7033 71.7693 96.6406 69.357 107.396 64.5093C114.935 61.1109 121.893 56.5397 127.95 51.063C128.664 50.4178 127.773 49.3188 126.985 49.8695C120.397 54.4637 113.379 58.2861 105.97 61.0694C95.424 65.0715 84.178 67 72.9712 66.6682C61.7644 66.3548 50.6359 63.8411 40.2217 59.4566C32.934 56.4175 26.0265 52.4523 19.5084 47.8051H19.5107Z" fill="#1E1C58"/>
<path d="M129.176 47.6023C122.999 52.3509 116.405 56.436 109.407 59.6363C98.2744 64.7743 86.2265 67.7211 74.052 68.2096C61.8775 68.7188 49.62 66.8364 37.9939 62.8734C29.5242 60.0164 21.4256 56.042 13.7324 51.2427C12.9191 50.7358 12.0919 51.8786 12.8315 52.4868C19.9418 58.3138 27.9736 63.113 36.5769 66.652C48.415 71.5113 61.3753 73.8936 74.2663 73.3545C87.1574 72.8545 99.9171 69.3339 111.211 63.2628C118.23 59.4888 124.676 54.7448 130.337 49.2589C129.872 48.7635 129.482 48.2036 129.171 47.6046L129.176 47.6023Z" fill="#2759A9"/>
<path d="M128.96 47.1484C123.942 51.1758 118.631 54.7701 113.027 57.823C101.346 64.2374 88.5055 68.3455 75.3402 69.7993C62.1773 71.2739 48.7448 70.1634 35.8376 66.7465C26.1238 64.2098 16.7487 60.3482 7.77675 55.5097C6.93117 55.0535 6.16852 56.2424 6.94728 56.8046C15.3086 62.8596 24.67 67.6589 34.5888 70.9491C47.7932 75.3198 62.0252 76.9211 75.9646 75.359C89.904 73.8383 103.475 69.0551 115.26 61.6154C120.799 58.1202 125.941 54.049 130.596 49.5169C129.893 48.8418 129.347 48.0331 128.957 47.1507L128.96 47.1484Z" fill="#1E1C58"/>
<path d="M130.821 49.7082C129.899 48.8995 129.213 47.8719 128.787 46.7383C124.973 49.9409 120.99 52.9108 116.812 55.5812C104.633 63.4241 91.0211 68.8501 76.8559 71.4237C62.6953 74.0204 48.0462 73.836 33.7912 71.1081C22.7433 69.0321 11.9789 65.4056 1.60383 60.6362C0.730602 60.2353 0.053225 61.4703 0.864245 61.9864C10.6126 68.1819 21.4231 72.8614 32.7544 75.7622C47.4034 79.4993 62.958 80.156 77.9526 77.405C92.9519 74.7 107.304 68.4838 119.52 59.5234C123.556 56.5627 127.358 53.3071 130.895 49.8026C130.867 49.7727 130.844 49.7404 130.819 49.7082H130.821Z" fill="#2759A9"/>
<path d="M138.458 28.2206C140.949 25.6355 143.877 23.5319 146.958 21.7417C148.174 21.0366 149.421 20.3846 150.688 19.7763L146.78 17.0806C146.123 16.6267 145.257 16.6198 144.594 17.0622L134.601 23.7001C133.451 24.4627 133.437 26.147 134.573 26.9304L138.44 29.5984C138.4 29.2021 138.382 28.8035 138.386 28.4003C138.386 28.3312 138.416 28.269 138.46 28.2229L138.458 28.2206Z" fill="#2759A9"/>
<path d="M174.661 26.7852C175.126 26.041 175.562 25.2807 175.96 24.4973C176.352 23.714 176.695 22.9053 176.97 22.0758C177.248 21.2487 177.451 20.3916 177.49 19.5252C177.536 18.6681 177.412 17.7788 176.949 17.0668C176.472 16.3595 175.705 15.8918 174.901 15.5876C174.092 15.2743 173.221 15.1222 172.35 15.0485C171.477 14.9771 170.599 14.9656 169.721 15.0209C168.843 15.0785 167.97 15.1821 167.104 15.3204C163.627 15.8826 160.272 17.03 157.056 18.3986C153.856 19.8202 150.789 21.5067 147.96 23.4628C146.552 24.449 145.181 25.4627 143.907 26.5664C143.271 27.117 142.658 27.6861 142.073 28.2737C141.75 28.587 141.437 28.9073 141.13 29.2321C141.202 29.7459 141.312 30.2851 141.474 30.8311C141.718 31.6583 142.027 32.5062 142.391 33.3425C143.135 35.013 144.043 36.6696 145.089 38.2294C145.605 39.0151 146.153 39.7777 146.734 40.5104C147.319 41.2385 147.907 41.9573 148.54 42.6163C148.853 42.948 149.178 43.266 149.506 43.5701C149.83 43.8789 150.16 44.1715 150.499 44.4411C150.936 44.7936 151.383 45.1046 151.823 45.3696C152.233 45.2083 152.644 45.0378 153.054 44.865C153.819 44.5424 154.579 44.1899 155.332 43.8098C156.835 43.0448 158.302 42.1762 159.752 41.2523C162.641 39.3929 165.38 37.2225 167.926 34.8286C170.431 32.4002 172.785 29.7598 174.661 26.7876V26.7852ZM161.086 27.5502C159.726 25.5042 160.284 22.7417 162.33 21.3823C164.376 20.0229 167.138 20.5805 168.498 22.6265C169.857 24.6725 169.299 27.435 167.253 28.7944C165.207 30.1537 162.445 29.5962 161.086 27.5502Z" fill="#1E1C58"/>
<path d="M140.283 35.7018C135.716 38.7086 131.947 44.289 133.142 46.0907C134.373 47.9455 141.036 46.593 145.494 43.5724C144.446 42.4112 143.494 41.167 142.621 39.8698C141.746 38.5381 140.955 37.1488 140.283 35.7018Z" fill="#1E1C58"/>
<path d="M165.364 45.0631L164.314 40.0311C163.226 41.0034 162.104 41.9366 160.943 42.8213C158.113 44.9733 155.058 46.8649 151.747 48.2197C151.683 48.2473 151.611 48.245 151.552 48.2197C151.213 48.0837 150.883 47.9271 150.565 47.7589L151.554 52.496C151.835 53.8461 153.392 54.4866 154.542 53.7217L164.535 47.0838C165.198 46.6437 165.528 45.8419 165.364 45.0608V45.0631Z" fill="#2759A9"/>
<path d="M158.364 80.8817C159.223 81.2596 160.101 80.384 159.723 79.5223L158.29 76.2575L159.723 72.9927C160.101 72.1333 159.225 71.2554 158.364 71.6333L155.099 73.0664L151.834 71.6356C150.974 71.2577 150.097 72.1333 150.475 72.995L151.905 76.2598L150.472 79.5246C150.094 80.384 150.97 81.2619 151.832 80.884L155.096 79.4509L158.361 80.884L158.364 80.8817Z" fill="#1E1C58"/>
<path d="M146.403 92.312C146.403 94.1598 144.906 95.6575 143.058 95.6575C141.21 95.6575 139.712 94.1598 139.712 92.312C139.712 90.4642 141.21 88.9666 143.058 88.9666C144.906 88.9666 146.403 90.4642 146.403 92.312Z" fill="#2759A9"/>
<path d="M52.3297 20.2234C53.0209 20.5275 53.7259 19.8225 53.4218 19.1313L52.2698 16.5047L53.4218 13.8781C53.7259 13.1869 53.0209 12.4818 52.3297 12.786L49.703 13.938L47.0764 12.786C46.3852 12.4818 45.6802 13.1869 45.9843 13.8781L47.1364 16.5047L45.9843 19.1313C45.6802 19.8225 46.3852 20.5275 47.0764 20.2234L49.703 19.0714L52.3297 20.2234Z" fill="#1E1C58"/>
<path d="M42.7079 29.4188C42.7079 30.9049 41.5029 32.1099 40.0168 32.1099C38.5307 32.1099 37.3257 30.9049 37.3257 29.4188C37.3257 27.9327 38.5307 26.7277 40.0168 26.7277C41.5029 26.7277 42.7079 27.9327 42.7079 29.4188Z" fill="#2759A9"/>
<path d="M34.2014 95.4063C34.7774 95.6598 35.3626 95.0722 35.1115 94.4962L34.153 92.312L35.1115 90.1255C35.365 89.5495 34.7774 88.9642 34.2014 89.2154L32.0172 90.1739L29.833 89.2154C29.257 88.9619 28.6718 89.5495 28.9229 90.1255L29.8814 92.3097L28.9229 94.4939C28.6695 95.0699 29.257 95.6552 29.833 95.404L32.0172 94.4455L34.2014 95.404V95.4063Z" fill="#1E1C58"/>
<path d="M106.967 8.42675C107.744 8.76775 108.534 7.97746 108.193 7.201L106.9 4.25415L108.193 1.30729C108.534 0.530826 107.744 -0.259456 106.967 0.0815413L104.02 1.3741L101.076 0.0815413C100.299 -0.259456 99.5091 0.530826 99.8501 1.30729L101.143 4.25184L99.8501 7.1987C99.5091 7.97516 100.299 8.76544 101.076 8.42445L104.023 7.13189L106.97 8.42445L106.967 8.42675Z" fill="#1E1C58"/>
<path d="M47.8643 106.212C47.8643 107.45 46.862 108.452 45.6248 108.452C44.3875 108.452 43.3853 107.45 43.3853 106.212C43.3853 104.975 44.3875 103.973 45.6248 103.973C46.862 103.973 47.8643 104.975 47.8643 106.212Z" fill="#2759A9"/>
<path d="M115.863 14.802C117.1 14.802 118.103 13.7994 118.103 12.5625C118.103 11.3257 117.1 10.323 115.863 10.323C114.626 10.323 113.624 11.3257 113.624 12.5625C113.624 13.7994 114.626 14.802 115.863 14.802Z" fill="#2759A9"/>
<path d="M11.787 149.302L9.7272 152.602H3.1377L17.5517 129.508H25.7886L27.8485 152.602H21.2589L20.9617 149.302H11.787ZM19.8258 136.437L15.9043 142.704H20.3672L19.8235 136.437H19.8258Z" fill="#1E1C58"/>
<path d="M43.3315 129.508C46.5156 129.508 48.9326 130.635 50.58 132.891C52.2273 135.144 52.6282 137.867 51.7826 141.056C50.9255 144.245 49.0708 146.966 46.2161 149.222C43.3614 151.475 40.3408 152.604 37.1566 152.604H28.0972L34.2743 129.511H43.3338L43.3315 129.508ZM36.447 146.003H38.9169C40.2786 146.003 41.5712 145.519 42.7969 144.551C44.0204 143.584 44.8198 142.418 45.1931 141.054C45.5548 139.69 45.382 138.524 44.6747 137.556C43.9673 136.589 42.9305 136.105 41.5688 136.105H39.0989L36.447 146.001V146.003Z" fill="#1E1C58"/>
<path d="M59.7205 144.353C54.2299 144.353 52.154 141.858 53.495 136.865C54.8013 131.96 58.1998 129.508 63.6903 129.508H74.3971L72.6346 136.107H61.9277C60.8287 136.107 60.2135 136.361 60.0822 136.865C59.9163 137.46 60.3841 137.757 61.4831 137.757H66.4252C71.9157 137.757 74.0078 140.208 72.7014 145.114C71.3605 150.106 67.9459 152.602 62.4554 152.602H51.7485L53.5111 146.003H64.2179C65.317 146.003 65.9483 145.706 66.1118 145.111C66.2432 144.604 65.7593 144.353 64.6626 144.353H59.7205Z" fill="#1E1C58"/>
<path d="M116.303 137.754C114.833 143.254 111.349 146.005 105.858 146.005H100.921L99.1561 152.604H92.5688L96.0963 139.406H107.623C108.718 139.406 109.418 138.858 109.713 137.754C110.013 136.655 109.612 136.105 108.513 136.105H82.6016C81.5025 136.105 80.8874 136.358 80.7583 136.865C80.5925 137.46 81.0579 137.754 82.1569 137.754H87.099C92.5896 137.754 94.6839 140.206 93.3729 145.111C92.0366 150.106 88.622 152.602 83.1292 152.602H72.4224L74.1849 146.003H84.8918C85.9908 146.003 86.6221 145.703 86.7857 145.109C86.9147 144.604 86.4332 144.349 85.3342 144.349H80.392C74.9015 144.349 72.8232 141.856 74.1665 136.861C75.4706 131.955 78.8736 129.504 84.3618 129.504H110.273C115.764 129.504 117.773 132.255 116.303 137.75V137.754Z" fill="#2759A9"/>
<path d="M136.2 129.508L134.438 136.107H124.554L124.109 137.757H132.346L130.583 144.356H122.346L121.902 146.005H131.786L130.023 152.604H113.552L119.729 129.511H136.2V129.508Z" fill="#2759A9"/>
<path d="M153.033 136.105L154.796 129.506H138.327L132.149 152.602H148.623L150.386 146.003H140.502L140.946 144.351H149.181L150.943 137.752H142.709L143.153 136.102H153.038L153.033 136.105Z" fill="#2759A9"/>
<path d="M174.433 141.056C173.576 144.245 171.722 146.968 168.865 149.222C166.008 151.477 162.989 152.604 159.805 152.604H150.746L152.953 144.353H159.542L159.098 146.005L159.012 146.325L159.651 146.005L167.45 142.107L168.395 141.634L169.468 141.098L168.395 140.363L168.01 140.1L162.162 136.107L161.814 135.87L161.75 136.107L161.31 137.757H154.711L156.918 129.511H165.982C169.166 129.511 171.583 130.637 173.226 132.893C174.876 135.149 175.274 137.872 174.431 141.058L174.433 141.056Z" fill="#2759A9"/>
</svg>
