<svg width="20" height="21" viewBox="0 0 20 21" fill="none" xmlns="http://www.w3.org/2000/svg">
<path fill-rule="evenodd" clip-rule="evenodd" d="M5.9375 4.25C4.72938 4.25 3.75 5.22938 3.75 6.4375C3.75 7.64562 4.72938 8.625 5.9375 8.625C7.14562 8.625 8.125 7.64562 8.125 6.4375C8.125 5.22938 7.14562 4.25 5.9375 4.25ZM2.5 6.4375C2.5 4.53902 4.03902 3 5.9375 3C7.83598 3 9.375 4.53902 9.375 6.4375C9.375 8.33598 7.83598 9.875 5.9375 9.875C4.03902 9.875 2.5 8.33598 2.5 6.4375Z" fill="#4F4F4F"/>
<path fill-rule="evenodd" clip-rule="evenodd" d="M14.0625 4.25C12.8544 4.25 11.875 5.22938 11.875 6.4375C11.875 7.64562 12.8544 8.625 14.0625 8.625C15.2706 8.625 16.25 7.64562 16.25 6.4375C16.25 5.22938 15.2706 4.25 14.0625 4.25ZM10.625 6.4375C10.625 4.53902 12.164 3 14.0625 3C15.961 3 17.5 4.53902 17.5 6.4375C17.5 8.33598 15.961 9.875 14.0625 9.875C12.164 9.875 10.625 8.33598 10.625 6.4375Z" fill="#4F4F4F"/>
<path fill-rule="evenodd" clip-rule="evenodd" d="M5.9375 12.375C4.72938 12.375 3.75 13.3544 3.75 14.5625C3.75 15.7706 4.72938 16.75 5.9375 16.75C7.14562 16.75 8.125 15.7706 8.125 14.5625C8.125 13.3544 7.14562 12.375 5.9375 12.375ZM2.5 14.5625C2.5 12.664 4.03902 11.125 5.9375 11.125C7.83598 11.125 9.375 12.664 9.375 14.5625C9.375 16.461 7.83598 18 5.9375 18C4.03902 18 2.5 16.461 2.5 14.5625Z" fill="#4F4F4F"/>
<path fill-rule="evenodd" clip-rule="evenodd" d="M14.0625 11.75C14.4077 11.75 14.6875 12.0298 14.6875 12.375V16.75C14.6875 17.0952 14.4077 17.375 14.0625 17.375C13.7173 17.375 13.4375 17.0952 13.4375 16.75V12.375C13.4375 12.0298 13.7173 11.75 14.0625 11.75Z" fill="#4F4F4F"/>
<path fill-rule="evenodd" clip-rule="evenodd" d="M11.25 14.5625C11.25 14.2173 11.5298 13.9375 11.875 13.9375H16.25C16.5952 13.9375 16.875 14.2173 16.875 14.5625C16.875 14.9077 16.5952 15.1875 16.25 15.1875H11.875C11.5298 15.1875 11.25 14.9077 11.25 14.5625Z" fill="#4F4F4F"/>
</svg>
