<svg width="20" height="21" viewBox="0 0 20 21" fill="none" xmlns="http://www.w3.org/2000/svg">
<path fill-rule="evenodd" clip-rule="evenodd" d="M2.5 5.5C2.5 5.15482 2.77982 4.875 3.125 4.875H16.875C17.2202 4.875 17.5 5.15482 17.5 5.5C17.5 5.84518 17.2202 6.125 16.875 6.125H3.125C2.77982 6.125 2.5 5.84518 2.5 5.5Z" fill="#4F4F4F"/>
<path fill-rule="evenodd" clip-rule="evenodd" d="M2.5 10.5C2.5 10.1548 2.77982 9.875 3.125 9.875H16.875C17.2202 9.875 17.5 10.1548 17.5 10.5C17.5 10.8452 17.2202 11.125 16.875 11.125H3.125C2.77982 11.125 2.5 10.8452 2.5 10.5Z" fill="#4F4F4F"/>
<path fill-rule="evenodd" clip-rule="evenodd" d="M2.5 15.5C2.5 15.1548 2.77982 14.875 3.125 14.875H11.25C11.5952 14.875 11.875 15.1548 11.875 15.5C11.875 15.8452 11.5952 16.125 11.25 16.125H3.125C2.77982 16.125 2.5 15.8452 2.5 15.5Z" fill="#4F4F4F"/>
<path fill-rule="evenodd" clip-rule="evenodd" d="M13.75 15.5C13.75 15.1548 14.0298 14.875 14.375 14.875H18.125C18.4702 14.875 18.75 15.1548 18.75 15.5C18.75 15.8452 18.4702 16.125 18.125 16.125H14.375C14.0298 16.125 13.75 15.8452 13.75 15.5Z" fill="#4F4F4F"/>
<path fill-rule="evenodd" clip-rule="evenodd" d="M16.25 13C16.5952 13 16.875 13.2798 16.875 13.625V17.375C16.875 17.7202 16.5952 18 16.25 18C15.9048 18 15.625 17.7202 15.625 17.375V13.625C15.625 13.2798 15.9048 13 16.25 13Z" fill="#4F4F4F"/>
</svg>
