<svg width="20" height="20" viewBox="0 0 20 20" fill="none" xmlns="http://www.w3.org/2000/svg">
<path d="M9.91528 17.5847V15.986L14.3559 11.5453L15.9547 13.144L11.514 17.5847H9.91528ZM2.41528 13.2645V11.8401H8.89445V13.2645H2.41528ZM16.8505 12.2482L15.2518 10.6495L15.8559 10.0453C15.9837 9.91757 16.1494 9.85371 16.3532 9.85371C16.557 9.85371 16.7228 9.91757 16.8505 10.0453L17.4547 10.6495C17.5824 10.7772 17.6463 10.9429 17.6463 11.1467C17.6463 11.3505 17.5824 11.5163 17.4547 11.644L16.8505 12.2482ZM2.41528 9.70744V8.28804H12.3763V9.70744H2.41528ZM2.41528 6.15534V4.73596H12.3763V6.15534H2.41528Z" fill="#1E1C58"/>
</svg>
