<svg width="20" height="21" viewBox="0 0 20 21" fill="none" xmlns="http://www.w3.org/2000/svg">
<path fill-rule="evenodd" clip-rule="evenodd" d="M10 3.3125C8.61929 3.3125 7.5 4.43179 7.5 5.8125C7.5 7.19321 8.61929 8.3125 10 8.3125C11.3807 8.3125 12.5 7.19321 12.5 5.8125C12.5 4.43179 11.3807 3.3125 10 3.3125ZM6.25 5.8125C6.25 3.74143 7.92893 2.0625 10 2.0625C12.0711 2.0625 13.75 3.74143 13.75 5.8125C13.75 7.88357 12.0711 9.5625 10 9.5625C7.92893 9.5625 6.25 7.88357 6.25 5.8125Z" fill="#4F4F4F"/>
<path fill-rule="evenodd" clip-rule="evenodd" d="M14.6875 11.4375C13.3068 11.4375 12.1875 12.5568 12.1875 13.9375C12.1875 15.3182 13.3068 16.4375 14.6875 16.4375C16.0682 16.4375 17.1875 15.3182 17.1875 13.9375C17.1875 12.5568 16.0682 11.4375 14.6875 11.4375ZM10.9375 13.9375C10.9375 11.8664 12.6164 10.1875 14.6875 10.1875C16.7586 10.1875 18.4375 11.8664 18.4375 13.9375C18.4375 16.0086 16.7586 17.6875 14.6875 17.6875C12.6164 17.6875 10.9375 16.0086 10.9375 13.9375Z" fill="#4F4F4F"/>
<path fill-rule="evenodd" clip-rule="evenodd" d="M5.3125 11.4375C3.93179 11.4375 2.8125 12.5568 2.8125 13.9375C2.8125 15.3182 3.93179 16.4375 5.3125 16.4375C6.69321 16.4375 7.8125 15.3182 7.8125 13.9375C7.8125 12.5568 6.69321 11.4375 5.3125 11.4375ZM1.5625 13.9375C1.5625 11.8664 3.24143 10.1875 5.3125 10.1875C7.38357 10.1875 9.0625 11.8664 9.0625 13.9375C9.0625 16.0086 7.38357 17.6875 5.3125 17.6875C3.24143 17.6875 1.5625 16.0086 1.5625 13.9375Z" fill="#4F4F4F"/>
</svg>
