<svg width="20" height="21" viewBox="0 0 20 21" fill="none" xmlns="http://www.w3.org/2000/svg">
<path fill-rule="evenodd" clip-rule="evenodd" d="M5 8.625C3.96447 8.625 3.125 9.46447 3.125 10.5C3.125 11.5355 3.96447 12.375 5 12.375C6.03553 12.375 6.875 11.5355 6.875 10.5C6.875 9.46447 6.03553 8.625 5 8.625ZM1.875 10.5C1.875 8.77411 3.27411 7.375 5 7.375C6.72589 7.375 8.125 8.77411 8.125 10.5C8.125 12.2259 6.72589 13.625 5 13.625C3.27411 13.625 1.875 12.2259 1.875 10.5Z" fill="#4F4F4F"/>
<path fill-rule="evenodd" clip-rule="evenodd" d="M13.75 14.25C12.7145 14.25 11.875 15.0895 11.875 16.125C11.875 17.1605 12.7145 18 13.75 18C14.7855 18 15.625 17.1605 15.625 16.125C15.625 15.0895 14.7855 14.25 13.75 14.25ZM10.625 16.125C10.625 14.3991 12.0241 13 13.75 13C15.4759 13 16.875 14.3991 16.875 16.125C16.875 17.8509 15.4759 19.25 13.75 19.25C12.0241 19.25 10.625 17.8509 10.625 16.125Z" fill="#4F4F4F"/>
<path fill-rule="evenodd" clip-rule="evenodd" d="M13.75 3C12.7145 3 11.875 3.83947 11.875 4.875C11.875 5.91053 12.7145 6.75 13.75 6.75C14.7855 6.75 15.625 5.91053 15.625 4.875C15.625 3.83947 14.7855 3 13.75 3ZM10.625 4.875C10.625 3.14911 12.0241 1.75 13.75 1.75C15.4759 1.75 16.875 3.14911 16.875 4.875C16.875 6.60089 15.4759 8 13.75 8C12.0241 8 10.625 6.60089 10.625 4.875Z" fill="#4F4F4F"/>
<path fill-rule="evenodd" clip-rule="evenodd" d="M12.173 5.88882C12.3596 6.17917 12.2756 6.56587 11.9852 6.75253L7.44059 9.67407C7.15023 9.86073 6.76354 9.77666 6.57688 9.48631C6.39022 9.19595 6.47429 8.80925 6.76464 8.6226L11.3093 5.70105C11.5996 5.5144 11.9863 5.59846 12.173 5.88882Z" fill="#4F4F4F"/>
<path fill-rule="evenodd" clip-rule="evenodd" d="M6.57688 11.5137C6.76354 11.2233 7.15023 11.1393 7.44059 11.3259L11.9852 14.2475C12.2756 14.4341 12.3596 14.8208 12.173 15.1112C11.9863 15.4015 11.5996 15.4856 11.3093 15.2989L6.76464 12.3774C6.47429 12.1907 6.39022 11.8041 6.57688 11.5137Z" fill="#4F4F4F"/>
</svg>
